<svg xmlns="http://www.w3.org/2000/svg" viewBox="0 0 24 24">
  <path d="M 4.35,10.3 C 4.35,7.094 4.35,5.492 5.346,4.496 C 6.342,3.5 7.944,3.5 11.15,3.5 l 1.7,0 c 3.206,0 4.808,0 5.804,0.996 C 19.65,5.492 19.65,7.094 19.65,10.3 l 0,3.4 c 0,3.206 0,4.808 -0.996,5.804 C 17.658,20.5 16.056,20.5 12.85,20.5 L 11.15,20.5 C 7.944,20.5 6.342,20.5 5.346,19.504 C 4.35,18.508 4.35,16.906 4.35,13.7 Z" fill="#C9CBCD" fill-opacity="1" stroke="#000000" stroke-width="0.75"/>
  <rect x="7.543" y="6.915" width="8.914" height="10.171" fill="#FFF7E6" fill-opacity="1" stroke="#000000" stroke-width="0.75" stroke-linecap="square" stroke-linejoin="round"/>
  <path d="M 14.913,14.858 L 9.292,9.383 m 0,2.079 L 9.292,9.383 l 2.079,0 m 3.593,3.411 l 0,2.079 L 12.886,14.874" fill="none" fill-opacity="1" stroke="#000000" stroke-width="0.75" stroke-linecap="round" stroke-linejoin="round"/>
</svg>
