<svg xmlns="http://www.w3.org/2000/svg" viewBox="0 0 24 24">
  <path d="M 2.656,10.1 L 2.656,6.923 C 2.824,5.557 3.171,4.611 3.891,3.891 C 5.282,2.5 7.521,2.5 11.999,2.5 c 4.478,0 6.718,0 8.109,1.391 c 0.72,0.72 1.067,1.666 1.235,3.032 L 21.343,10.1" fill="#FFE7B0" fill-opacity="1" stroke="#000000" stroke-width="0.75"/>
  <path d="M 2.5,13.9 C 2.5,11.24 2.5,9.91 3.018,8.893 C 3.473,8 4.2,7.273 5.094,6.818 C 6.11,6.3 7.44,6.3 10.1,6.3 l 3.8,0 c 2.66,0 3.99,0 5.006,0.518 c 0.894,0.455 1.62,1.182 2.076,2.076 C 21.5,9.91 21.5,11.24 21.5,13.9 c 0,2.66 0,3.99 -0.518,5.006 c -0.455,0.894 -1.182,1.62 -2.076,2.076 C 17.89,21.5 16.56,21.5 13.9,21.5 L 10.1,21.5 C 7.44,21.5 6.11,21.5 5.094,20.982 C 4.2,20.527 3.473,19.8 3.018,18.906 C 2.5,17.89 2.5,16.56 2.5,13.9 Z M 12.504,10.546 C 12.37,10.412 12.189,10.337 12,10.337 c -0.189,0 -0.37,0.075 -0.504,0.209 l -2.375,2.375 c -0.278,0.278 -0.278,0.729 0,1.008 c 0.278,0.278 0.729,0.278 1.008,0 L 11.288,12.77 L 11.288,16.75 c 0,0.393 0.319,0.712 0.712,0.712 c 0.393,0 0.712,-0.319 0.712,-0.712 l 0,-3.98 l 1.159,1.159 c 0.278,0.278 0.729,0.278 1.008,0 c 0.278,-0.278 0.278,-0.729 0,-1.008 z" fill="#FFD77F" fill-opacity="1" stroke="#000000" stroke-width="0.75"/>
</svg>
